<?xml version="1.0" encoding="UTF-8"?>
<!-- Generator: visioncortex VTracer -->
<svg id="svg" version="1.1" xmlns="http://www.w3.org/2000/svg" style="display: block;" viewBox="0 0 676 980"><path d="M0 0 C1.50002607 -0.00135246 3.0000517 -0.00329779 4.50007629 -0.00579834 C7.63933498 -0.00873412 10.77847932 -0.00451001 13.91772461 0.00488281 C17.86870912 0.01614978 21.81942064 0.00959017 25.77039528 -0.00198269 C39.81147732 -0.0370674 53.83301728 -0.04144371 67.8359375 1.12109375 C68.73877975 1.19386536 69.64162201 1.26663696 70.57182312 1.34161377 C77.88384808 2.05371026 83.46059631 3.96156451 89.51953125 8.265625 C90.46828125 8.92820312 91.41703125 9.59078125 92.39453125 10.2734375 C104.46133383 19.42191011 113.57902099 33.26902268 116.51953125 48.265625 C116.59858043 50.93527405 116.54698901 53.59398531 116.51953125 56.265625 C118.30794024 56.26424231 118.30794024 56.26424231 120.13247871 56.26283169 C148.71096056 56.24097062 177.28944227 56.22458461 205.8679306 56.21455967 C209.41846416 56.2133096 212.96899771 56.21201522 216.51953125 56.21069336 C217.22610465 56.21043105 217.93267804 56.21016874 218.66066276 56.20989848 C229.96323917 56.20559785 241.26581028 56.19774276 252.56838359 56.1884722 C264.24619217 56.17897686 275.92399806 56.17353665 287.60181034 56.17153651 C294.12717493 56.1703111 300.65252987 56.16734378 307.17789078 56.15989494 C332.67464402 56.13210889 358.16851207 56.18277162 383.66255546 56.59063065 C385.98597692 56.62740815 388.30944181 56.66155641 390.63294435 56.69279468 C419.810755 57.09949558 435.11022848 60.5319159 456.31640625 81.76171875 C457.19427795 82.63530533 458.07214966 83.50889191 458.97662354 84.40895081 C460.81425466 86.24088624 462.64933531 88.07538342 464.48193359 89.91235352 C467.26792158 92.7015135 470.06702041 95.47703706 472.8671875 98.25195312 C474.66357079 100.04606396 476.4591707 101.84095959 478.25390625 103.63671875 C479.49318878 104.86218666 479.49318878 104.86218666 480.75750732 106.1124115 C492.39993815 117.84724376 498.82174024 129.07357811 499.01953125 145.828125 C498.87647552 157.91752606 495.95295209 167.36174473 487.51953125 176.265625 C484.96613013 178.7428926 482.25236005 180.98970449 479.51953125 183.265625 C478.39988192 184.24197567 477.28292485 185.22141824 476.16796875 186.203125 C469.47607137 192.08613112 462.69572949 197.78675869 455.64990234 203.24121094 C451.6853982 206.31937401 447.8309087 209.50021567 444.01953125 212.765625 C439.09818965 216.97689263 434.07156039 221.02126003 428.9609375 225 C424.43249326 228.53098956 419.96730446 232.13367758 415.51953125 235.765625 C410.55728008 239.81554469 405.56778616 243.82341193 400.51953125 247.765625 C395.25064783 251.88372754 390.02774763 256.05554587 384.83203125 260.265625 C383.80625977 261.09416992 383.80625977 261.09416992 382.75976562 261.93945312 C381.79973633 262.7196582 381.79973633 262.7196582 380.8203125 263.515625 C380.25481689 263.97453125 379.68932129 264.4334375 379.10668945 264.90625 C378.32104614 265.57914062 378.32104614 265.57914062 377.51953125 266.265625 C377.01153488 266.66767654 376.50353851 267.06972809 375.98014832 267.48396301 C373.93952143 269.9731215 373.90058711 271.94125406 373.5625 275.1315918 C373.42303452 276.38727463 373.28356903 277.64295746 373.13987732 278.93669128 C372.99535229 280.3627175 372.8510818 281.78876953 372.70703125 283.21484375 C372.54107455 284.76076091 372.37400493 286.30655891 372.20594788 287.85224915 C371.73065316 292.25929391 371.27303604 296.66803808 370.8179512 301.07720947 C370.41028854 305.00591257 369.99281391 308.93355032 369.57546711 312.86123466 C368.24394169 325.39533693 366.93905419 337.93215887 365.63942844 350.46960199 C365.56801849 351.15846573 365.49660855 351.84732947 365.42303467 352.55706787 C365.35052905 353.25651697 365.27802344 353.95596606 365.20332068 354.67661059 C364.39330505 362.48772566 363.57868791 370.29836033 362.76427674 378.10901809 C353.57711747 466.22818005 344.56266066 554.36498948 335.64591599 642.51190186 C335.22975498 646.62573317 334.81338468 650.73954321 334.39680862 654.85333252 C333.21129539 666.56058818 332.02755502 678.2680203 330.84678841 689.97575569 C330.49092036 693.50393482 330.1343756 697.03204439 329.77715874 700.5600872 C329.36322277 704.64908836 328.95074195 708.73823354 328.5395726 712.82751381 C328.38310145 714.38264589 328.22626547 715.93774131 328.06904423 717.49279773 C327.21514169 725.94919557 326.40814041 734.40699356 325.68920898 742.87600708 C325.62251935 743.6511852 325.55582973 744.42636331 325.4871192 745.22503167 C325.17001102 748.91132618 324.86109786 752.59786939 324.56928253 756.28625393 C324.46001183 757.57226026 324.35074112 758.85826658 324.23815918 760.1832428 C324.14701591 761.31419908 324.05587265 762.44515535 323.96196747 763.61038303 C323.51953125 766.265625 323.51953125 766.265625 321.51953125 768.265625 C312.2163111 769.8382879 302.60387076 769.55765621 293.18579102 769.66699219 C279.50271127 769.83860396 265.6938176 770.73839866 253.01953125 776.390625 C252.32794922 776.68775391 251.63636719 776.98488281 250.92382812 777.29101562 C239.69410813 782.24919662 228.80931555 788.18606948 219.51953125 796.265625 C218.66230469 796.97976563 217.80507813 797.69390625 216.921875 798.4296875 C195.09111596 817.2821292 180.08600519 844.8951071 176.76953125 873.578125 C176.65151663 875.47211577 176.57420312 877.36874876 176.51953125 879.265625 C176.49906738 879.97557617 176.47860352 880.68552734 176.45751953 881.41699219 C175.64894761 914.30782686 184.2567468 944.85667288 207.01953125 969.390625 C207.83421875 970.21820312 208.64890625 971.04578125 209.48828125 971.8984375 C211.54336238 974.29339744 212.54405536 976.28618233 213.51953125 979.265625 C211.98242776 980.80272849 210.5841716 980.39101374 208.44147873 980.39146614 C207.55720569 980.39407389 206.67293266 980.39668164 205.76186347 980.39936841 C204.77912711 980.39713768 203.79639076 980.39490696 202.78387451 980.39260864 C201.74836401 980.39416863 200.71285351 980.39572862 199.64596391 980.39733589 C196.1464488 980.40135136 192.64697643 980.39815394 189.14746094 980.39501953 C186.64939854 980.3963735 184.15133635 980.3981534 181.65327454 980.40032959 C175.54961174 980.40443232 169.44596593 980.40380844 163.34230378 980.40091695 C158.3720639 980.39866009 153.40182746 980.39835164 148.43158722 980.39944077 C147.72451805 980.399594 147.01744888 980.39974723 146.28895338 980.39990511 C144.85236627 980.40022485 143.41577916 980.40054906 141.97919205 980.4008777 C128.48104599 980.40373452 114.9829067 980.40044447 101.48476174 980.39507733 C89.94019581 980.39062843 78.39563996 980.39136894 66.85107422 980.39599609 C53.43277739 980.40137178 40.01448654 980.40343947 26.59618878 980.40038383 C25.15872272 980.40006531 23.72125665 980.39975094 22.28379059 980.39944077 C21.57666419 980.39928649 20.8695378 980.39913221 20.14098333 980.39897326 C15.19553719 980.39811561 10.25009489 980.3995551 5.30464935 980.40192032 C-1.38968453 980.40505148 -8.08399679 980.40275797 -14.77832985 980.39702606 C-17.22059663 980.39571653 -19.66286503 980.39606137 -22.10513115 980.39828873 C-36.59548213 980.41027247 -51.01340294 980.10745589 -65.48046875 979.265625 C-68.28450015 961.37917331 -70.12625199 943.40339691 -71.95738703 925.39805561 C-72.41348939 920.92187145 -72.87432627 916.44617386 -73.33437729 911.97039413 C-74.24650697 903.08776001 -75.15361826 894.20461987 -76.0588682 885.32128224 C-76.81362192 877.91533468 -77.57020559 870.50957591 -78.32777786 863.10391617 C-87.4571438 773.8454106 -96.40930938 684.569043 -112.7206331 521.49794276 C-112.86231902 520.08043596 -113.00400495 518.66292916 -113.14569092 517.24542236 C-113.25099562 516.1918933 -113.25099562 516.1918933 -113.35842769 515.11708083 C-115.01750879 498.51876766 -116.67710756 481.92050627 -118.33691406 465.32226562 C-118.40878201 464.60357338 -118.48064996 463.88488113 -118.55469572 463.14441033 C-120.20378966 446.65323979 -121.85321263 430.1621022 -123.50336647 413.67103767 C-123.5730324 412.97481786 -123.64269833 412.27859805 -123.71447534 411.56128066 C-124.41038977 404.60656991 -125.10634233 397.65186298 -125.80236011 390.69716257 C-127.20678747 376.66379514 -128.61055949 362.63036289 -130.01240158 348.59673691 C-131.48516359 333.8532451 -132.95933135 319.10989452 -134.43505859 304.36669922 C-134.54956902 303.22237351 -134.66407944 302.0780478 -134.78205988 300.89904556 C-137.73962374 271.34727008 -140.72470232 241.79917299 -143.91008568 212.27094841 C-144.02060823 211.24100785 -144.13113079 210.21106729 -144.24500251 209.14991641 C-144.4438264 207.30009708 -144.64443705 205.45046834 -144.84736276 203.60109448 C-145.22089312 200.12636097 -145.48046875 196.76506887 -145.48046875 193.265625 C-156.04046875 193.265625 -166.60046875 193.265625 -177.48046875 193.265625 C-177.48046875 177.755625 -177.48046875 162.245625 -177.48046875 146.265625 C-168.33800697 146.2501638 -168.33800697 146.2501638 -159.010849 146.23439026 C-118.69916875 146.16590162 -78.38749074 146.09634608 -38.07582092 146.0219574 C-37.38650982 146.02068572 -36.69719872 146.01941404 -35.9869994 146.01810382 C-21.00127153 145.99045029 -6.01554406 145.96258699 8.97018302 145.93450806 C16.32069811 145.92073659 23.67121329 145.9070114 31.02172852 145.89331055 C31.75313759 145.89194646 32.48454666 145.89058238 33.23811965 145.88917696 C56.88432262 145.84509825 80.53052967 145.80406723 104.17674082 145.76464087 C128.50527656 145.72406057 152.83380479 145.68035729 177.16232795 145.63280389 C180.60981502 145.62606674 184.05730217 145.61936477 187.50478935 145.61268425 C188.52241924 145.61071066 188.52241924 145.61071066 189.5606073 145.6086972 C200.41865179 145.58772912 211.27669919 145.56998899 222.1347513 145.55349969 C233.088684 145.53679431 244.0426057 145.51650928 254.99652583 145.49295659 C260.9161695 145.48032932 266.83580555 145.46915892 272.75545883 145.46220589 C286.6773288 145.44503699 300.59822172 145.39518565 314.51953125 145.265625 C315.76440713 145.25512895 315.76440713 145.25512895 317.03443202 145.24442086 C321.56667229 145.20420559 326.09753146 145.14310485 330.62887143 145.04337507 C332.54055203 145.00450419 334.45256328 144.98307342 336.36452776 144.96244675 C342.91017772 144.78028852 347.23933265 144.26748321 352.51953125 140.265625 C355.22281749 136.25429703 356.22064265 133.073246 355.51953125 128.265625 C353.84013356 125.07983133 353.84013356 125.07983133 351.51953125 122.265625 C350.71528076 121.20239002 350.71528076 121.20239002 349.89478278 120.11767554 C346.51757308 117.48436998 343.37279656 117.71133981 339.26550674 117.75781631 C338.42176965 117.75151256 337.57803255 117.74520881 336.70872766 117.73871404 C333.86236883 117.72236382 331.01684167 117.73464985 328.17047119 117.74664307 C326.1169876 117.74077158 324.0635084 117.73314652 322.01003718 117.723912 C316.35241586 117.70357418 310.69504417 117.70822588 305.03740287 117.71681952 C298.94195429 117.72174848 292.8465697 117.70369928 286.75114441 117.68840027 C276.18549599 117.66504534 265.6199053 117.65620265 255.05423737 117.65750885 C243.97132336 117.6588184 232.88846508 117.6518926 221.80556488 117.63393402 C221.11682549 117.63282263 220.4280861 117.63171124 219.71847582 117.63056618 C216.22080913 117.6248792 212.7231427 117.61904476 209.22547635 117.61315355 C184.44247798 117.57167623 159.65949351 117.54871497 134.87646484 117.53662109 C110.79799825 117.52482872 86.71956249 117.50466279 62.64111328 117.47314453 C61.8990936 117.47217658 61.15707391 117.47120863 60.39256879 117.47021135 C52.94099729 117.46048165 45.48942604 117.45058155 38.03785494 117.44055658 C22.85773705 117.42013791 7.67761779 117.40085671 -7.50250244 117.38226318 C-8.20048128 117.38140685 -8.89846011 117.38055053 -9.61758982 117.37966825 C-56.23853286 117.32260083 -102.85949937 117.29213329 -149.48046875 117.265625 C-149.18237174 115.83566566 -148.87881429 114.40684401 -148.57299805 112.97851562 C-148.4045488 112.18272095 -148.23609955 111.38692627 -148.06254578 110.5670166 C-145.78247391 101.55216461 -139.53017652 93.17391576 -133.48046875 86.265625 C-132.62582031 85.26982422 -132.62582031 85.26982422 -131.75390625 84.25390625 C-115.01356449 66.1244723 -89.70640651 60.17797547 -66.48046875 55.265625 C-66.27292969 54.27304687 -66.06539063 53.28046875 -65.8515625 52.2578125 C-61.96005957 34.69381439 -54.57417417 19.43526821 -39.33984375 9.01953125 C-26.60872893 1.21041847 -14.66655636 -0.04724349 0 0 Z M-20.26171875 43.84375 C-23.24108038 47.07607629 -25.20564082 49.73096419 -25.48046875 54.265625 C-20.82448156 56.6271715 -16.63958896 56.54284178 -11.546875 56.50854492 C-10.21183426 56.51139244 -10.21183426 56.51139244 -8.849823 56.51429749 C-5.91411469 56.51799561 -2.978655 56.50731417 -0.04296875 56.49609375 C2.00056937 56.49490122 4.04410804 56.49444894 6.08764648 56.4947052 C10.36803627 56.49314196 14.64834223 56.48486466 18.92871094 56.47143555 C24.41316484 56.45444605 29.89752665 56.45062135 35.38200378 56.45138073 C39.60104246 56.45110869 43.82006103 56.44562197 48.03909302 56.43837929 C50.06128792 56.43519904 52.0834851 56.43322672 54.10568237 56.43248558 C56.93247345 56.4303152 59.75916734 56.42155579 62.5859375 56.41088867 C63.83759201 56.41156845 63.83759201 56.41156845 65.11453247 56.41226196 C69.04920109 56.39057368 72.67773362 56.23697351 76.51953125 55.265625 C76.10602822 49.99346138 75.34918133 46.99177102 71.51953125 43.265625 C66.45739915 40.16651817 61.93141468 39.53272649 56.14453125 39.078125 C55.18498535 38.99844482 54.22543945 38.91876465 53.23681641 38.83666992 C42.80007366 38.095736 32.35292707 38.0813583 21.89453125 38.078125 C21.03353821 38.07712799 20.17254517 38.07613098 19.28546143 38.07510376 C-1.69948275 36.70591422 -1.69948275 36.70591422 -20.26171875 43.84375 Z M438.12109375 136.64453125 C435.09243895 139.71012087 435.29800392 142.32130632 435.20703125 146.515625 C435.27959665 152.01245395 435.48869242 155.23478617 439.51953125 159.265625 C443.71786972 162.88459276 447.53203208 165.62681591 453.20703125 165.828125 C459.08525076 165.35868386 462.84631746 163.22979399 466.76953125 158.890625 C470.53879116 154.16424936 471.9633427 150.43740091 471.765625 144.25 C471.18623691 139.57810877 469.09044363 136.83653738 465.83203125 133.578125 C455.46909191 125.54684701 447.05234063 128.62709921 438.12109375 136.64453125 Z M36.21606445 237.69970703 C35.17266167 237.75543286 35.17266167 237.75543286 34.10818005 237.81228447 C29.01606707 238.12842219 23.93326086 238.51644062 19.51953125 241.265625 C16.63112213 245.02930961 15.96752741 248.6619072 16.171875 253.30859375 C16.77600729 256.70938339 18.26226693 258.71135222 20.51953125 261.265625 C28.85593502 266.76007294 39.77486677 265.41303527 49.34765625 265.3984375 C50.80914341 265.39975043 52.2706303 265.40141098 53.7321167 265.40339661 C58.41127672 265.40750014 63.09038187 265.40036578 67.76953125 265.390625 C68.5598877 265.38906025 69.35024414 265.3874955 70.16455078 265.38588333 C79.54827991 265.36633489 88.93188365 265.33160945 98.31552887 265.28805447 C103.6078236 265.2651717 108.89974607 265.26984771 114.19207764 265.2835083 C117.56701405 265.28553124 120.94110378 265.25986959 124.3157959 265.22088623 C125.76960612 265.2091691 127.22356342 265.20911905 128.67736816 265.22149658 C136.06128707 265.47986868 136.06128707 265.47986868 142.6640625 262.75048828 C145.93296679 259.1131624 147.36757786 255.87633095 147.83203125 250.953125 C147.45522084 246.50676218 146.42179747 244.62614378 143.51953125 241.265625 C132.94895725 235.0186242 117.69714071 237.11557218 105.6875 237.1328125 C103.99945563 237.13213629 102.31141135 237.13116365 100.62336731 237.12991333 C97.10624249 237.12845003 93.58914329 237.13054564 90.07202148 237.13525391 C85.6147287 237.14093703 81.15749636 237.13767234 76.7002058 237.13168144 C73.21929997 237.12802722 69.7384079 237.12923667 66.2575016 237.13180923 C64.61643784 237.13246583 62.97537272 237.13169568 61.33431053 237.12932968 C52.94879429 237.11989145 44.59012101 237.23427993 36.21606445 237.69970703 Z " transform="translate(177.48046875,-0.265625)" style="fill: #010101;"/><path d="M0 0 C1.48825608 1.21814554 2.96720298 2.44773736 4.4375 3.6875 C5.23929688 4.33203125 6.04109375 4.9765625 6.8671875 5.640625 C23.38312684 19.53253659 33.82121795 40.14154511 36.25439453 61.5 C38.39135784 87.02958835 33.4865483 111.10950004 16.68359375 131.15234375 C0.66487515 149.23260179 -19.83433052 161.9962812 -44.48583984 163.91503906 C-70.19003171 165.19441502 -93.11959553 159.68240306 -112.8125 142.1875 C-114.40420013 140.69638124 -115.98820686 139.19698519 -117.5625 137.6875 C-118.51962891 136.80771484 -118.51962891 136.80771484 -119.49609375 135.91015625 C-134.07741525 122.10823724 -144.13191226 100.24624764 -144.80078125 80.23046875 C-145.2953531 52.23416942 -138.46354775 30.45102912 -119.00805664 9.68652344 C-88.01938227 -22.31673004 -35.82045163 -27.16331971 0 0 Z M-75.5625 52.6875 C-82.91483565 61.9351044 -84.53122583 70.03795097 -83.5625 81.6875 C-81.73639004 89.01505515 -75.66322664 95.15104342 -69.37109375 99.04296875 C-61.07868098 103.27316826 -51.2979462 104.54474617 -42.25 101.6875 C-34.21437261 98.00666423 -28.83081601 91.72211019 -25.5625 83.6875 C-22.92695003 75.7808501 -23.70887442 66.35814093 -27.25390625 58.86328125 C-32.4696017 50.1912145 -41.15978295 45.82173902 -50.5625 42.6875 C-59.95047324 41.72954355 -68.92371304 46.21966893 -75.5625 52.6875 Z " transform="translate(527.5625,815.3125)" style="fill: #050505;"/><path d="M0 0 C0.66 0.33 1.32 0.66 2 1 C-0.97 3.97 -3.94 6.94 -7 10 C-7.66 9.67 -8.32 9.34 -9 9 C-6.21000549 5.51250686 -3.74764169 2.49842779 0 0 Z " transform="translate(135,11)" style="fill: #6B6B6B;"/></svg>